<svg width="32" height="32" viewBox="0 0 32 32" xmlns="http://www.w3.org/2000/svg">
   
  <rect width="32" height="32" rx="6" fill="#8B5CF6"/>
  
 
  <rect x="4" y="22" width="3" height="6" fill="#FFFFFF" opacity="0.9"/>
  <rect x="8" y="18" width="3" height="10" fill="#FFFFFF" opacity="0.9"/>
  <rect x="12" y="20" width="3" height="8" fill="#FFFFFF" opacity="0.9"/>
  <rect x="16" y="15" width="3" height="13" fill="#FFFFFF"/>
 
  <path d="M20 24 L23 20 L26 22 L29 18" stroke="#FFFFFF" stroke-width="2" fill="none" stroke-linecap="round" stroke-linejoin="round"/>
   
  <circle cx="20" cy="24" r="1.5" fill="#FFFFFF"/>
  <circle cx="23" cy="20" r="1.5" fill="#FFFFFF"/>
  <circle cx="26" cy="22" r="1.5" fill="#FFFFFF"/>
  <circle cx="29" cy="18" r="1.5" fill="#FFFFFF"/>
  
  
  <g transform="translate(6, 4)" fill="#FFFFFF" opacity="0.8">
    <rect x="2" y="0" width="1.5" height="8" rx="0.75"/>
    <rect x="6" y="0" width="1.5" height="8" rx="0.75"/>
    <rect x="0" y="2.5" width="10" height="1.5" rx="0.75"/>
    <rect x="0" y="4.5" width="10" height="1.5" rx="0.75"/>
  </g>
   
  <path d="M24 8 L27 5 L25 5 L25 3 L29 3 L29 7 L27 7 L27 5" fill="#FFFFFF" opacity="0.9"/>
</svg>