<svg width="21" height="22" viewBox="0 0 21 22" fill="none" xmlns="http://www.w3.org/2000/svg">
<g id="Frame 607">
<g id="Group">
<path id="Vector" d="M17.9688 11.75C19.2114 11.75 20.2188 10.7426 20.2188 9.5C20.2188 8.25736 19.2114 7.25 17.9688 7.25C16.7261 7.25 15.7188 8.25736 15.7188 9.5C15.7188 10.7426 16.7261 11.75 17.9688 11.75Z" fill="white"/>
<path id="Union" fill-rule="evenodd" clip-rule="evenodd" d="M12.4631 4.76162C11.7178 2.29559 9.42795 0.5 6.71875 0.5C3.40504 0.5 0.71875 3.18629 0.71875 6.5C0.71875 8.95596 2.19435 11.0673 4.30734 11.9957C4.33678 12.009 4.36635 12.0221 4.39604 12.0349C4.44585 12.0576 4.49603 12.0796 4.54656 12.101L4.57639 12.1142L4.6296 12.1378L4.66332 12.1529C4.6995 12.1694 4.73587 12.1856 4.77244 12.2013L4.81449 12.2198C4.84588 12.2338 4.87742 12.2475 4.9091 12.261L4.93284 12.2716C4.95705 12.2826 4.98135 12.2935 5.00575 12.3042C5.02356 12.3122 5.04142 12.3202 5.05933 12.328C5.08848 12.3412 5.11777 12.3541 5.14719 12.3668L5.18967 12.3854C5.21757 12.3979 5.24559 12.4101 5.27374 12.4221L5.27486 12.4226C5.30379 12.4357 5.33286 12.4485 5.36206 12.4611L5.38286 12.4703C5.4006 12.4783 5.41838 12.4862 5.43621 12.494L5.47117 12.5097C5.51323 12.5289 5.55557 12.5475 5.59819 12.5657L5.63467 12.5815L5.65088 12.5887C5.67948 12.6016 5.70822 12.6143 5.73709 12.6267L5.74069 12.6283C5.76438 12.6391 5.78817 12.6498 5.81205 12.6602C5.84754 12.6763 5.88325 12.6919 5.91916 12.7072L5.91987 12.7075C5.94952 12.7209 5.97932 12.7341 6.00927 12.7469C6.04327 12.7625 6.07747 12.7776 6.11186 12.7924L6.13487 12.8026C6.15261 12.8106 6.17041 12.8185 6.18827 12.8264C6.22061 12.841 6.25313 12.8553 6.28584 12.8692C6.32667 12.8878 6.3678 12.9059 6.40921 12.9234L6.45737 12.9448C6.47505 12.9528 6.49278 12.9607 6.51056 12.9685C6.53932 12.9815 6.56823 12.9942 6.59729 13.0067L6.61847 13.016C6.63622 13.0241 6.65403 13.032 6.6719 13.0398C6.709 13.0566 6.74635 13.073 6.78395 13.0888L6.81706 13.1036C6.84017 13.1142 6.86339 13.1246 6.8867 13.1348C6.9203 13.15 6.95412 13.1649 6.98814 13.1793L6.99442 13.182C7.0122 13.1901 7.03005 13.198 7.04795 13.2059C7.08036 13.2206 7.11297 13.2349 7.14578 13.2488L7.15584 13.2532C7.18289 13.2655 7.21008 13.2775 7.23742 13.2892L7.28203 13.3088L7.30759 13.3201C7.2911 13.3279 7.27469 13.3358 7.25835 13.3439L7.23198 13.3564C7.19955 13.371 7.1674 13.3862 7.13555 13.4019C7.12016 13.4091 7.10483 13.4164 7.08957 13.4238C7.0682 13.4336 7.04695 13.4437 7.02583 13.4539C6.99868 13.4664 6.97173 13.4793 6.94498 13.4925L6.91943 13.5045C6.89604 13.5151 6.8728 13.526 6.8497 13.5371C6.82157 13.5499 6.79365 13.5631 6.76594 13.5766C6.7418 13.5878 6.71781 13.5993 6.69398 13.6111L6.66905 13.6228C6.63517 13.6382 6.60159 13.6541 6.56831 13.6705L6.537 13.6853C6.51819 13.6939 6.49947 13.7026 6.48084 13.7115C6.44351 13.7284 6.40653 13.746 6.36992 13.7642L6.33709 13.7799C6.31575 13.7897 6.29452 13.7997 6.27341 13.81L6.24353 13.8239C6.20485 13.8413 6.16654 13.8593 6.12861 13.878C6.114 13.8848 6.09945 13.8917 6.08495 13.8988C6.06086 13.9099 6.03692 13.9212 6.01313 13.9329C5.98883 13.9442 5.96467 13.9557 5.94066 13.9675L5.93096 13.9721C5.89856 13.9866 5.86642 14.0016 5.83454 14.0171C5.8138 14.0267 5.79317 14.0364 5.77264 14.0463C5.75125 14.0562 5.72996 14.0663 5.70879 14.0765C5.68462 14.0877 5.66059 14.0991 5.63671 14.1108C5.61691 14.12 5.59721 14.1293 5.57761 14.1389C5.55875 14.1476 5.53998 14.1565 5.5213 14.1656C5.50067 14.1751 5.48014 14.1848 5.45971 14.1947C5.4383 14.2046 5.41701 14.2146 5.39582 14.2249C5.37519 14.2344 5.35466 14.2441 5.33424 14.254C5.31393 14.2634 5.29372 14.2729 5.2736 14.2826C5.25196 14.2926 5.23043 14.3028 5.20901 14.3131C5.18761 14.323 5.16631 14.3331 5.14512 14.3434C3.85804 14.9374 2.96484 16.2394 2.96484 17.75C2.96484 19.8211 4.64378 21.5 6.71484 21.5C7.83514 21.5 8.8407 21.0087 9.52785 20.2299C9.54837 20.2075 9.56863 20.1848 9.58861 20.1619C9.61085 20.1373 9.63277 20.1125 9.65436 20.0873L9.68032 20.0578C9.691 20.046 9.7016 20.0342 9.71213 20.0222C9.73261 19.9999 9.75282 19.9773 9.77275 19.9544C9.78346 19.9426 9.79409 19.9307 9.80465 19.9187C9.83864 19.8816 9.87188 19.8438 9.90434 19.8053L9.91582 19.7921L9.94205 19.7627C9.96249 19.7404 9.98266 19.7179 10.0026 19.695L10.0194 19.6763L10.0346 19.6592C10.056 19.6358 10.0771 19.6122 10.0979 19.5883C10.1161 19.5681 10.1341 19.5477 10.1519 19.5271L10.1784 19.4973L10.1921 19.4816L10.2191 19.4513C10.243 19.4252 10.2665 19.3988 10.2896 19.3721C10.3024 19.3577 10.3152 19.3433 10.3278 19.3287L10.3576 19.2954C10.3778 19.2734 10.3977 19.2511 10.4174 19.2285C10.4383 19.2054 10.4589 19.182 10.4793 19.1583L10.485 19.152C10.5134 19.1212 10.5414 19.0899 10.5687 19.0581C10.5833 19.0418 10.5978 19.0254 10.6121 19.0088L10.6237 18.9959C10.6511 18.9662 10.678 18.9361 10.7044 18.9055C10.718 18.8903 10.7315 18.875 10.7449 18.8596C10.7629 18.8396 10.7807 18.8194 10.7983 18.799L10.8081 18.7881C10.8354 18.7586 10.8621 18.7286 10.8884 18.6982L10.9112 18.6726C10.9312 18.6508 10.9509 18.6287 10.9703 18.6064C10.9966 18.5774 11.0224 18.548 11.0476 18.5181C11.0714 18.4922 11.0948 18.4659 11.1178 18.4392L11.1311 18.4244C11.158 18.3954 11.1844 18.3658 11.2102 18.3358C11.2265 18.3178 11.2425 18.2995 11.2583 18.2811C11.2713 18.2667 11.2841 18.2522 11.2968 18.2375L11.3256 18.2051C11.3454 18.1835 11.365 18.1617 11.3842 18.1395C11.3956 18.127 11.407 18.1143 11.4182 18.1016C11.4388 18.0792 11.459 18.0564 11.479 18.0334C11.4987 18.0117 11.5181 17.9897 11.5372 17.9673L11.5596 17.9421L11.5683 17.9322C11.5798 17.9195 11.5911 17.9068 11.6024 17.8939C11.6255 17.8688 11.6482 17.8434 11.6704 17.8175C11.6833 17.8032 11.6961 17.7887 11.7088 17.7741C11.7196 17.7621 11.7304 17.7501 11.741 17.738C11.7623 17.7148 11.7832 17.6913 11.8038 17.6675C11.8209 17.6487 11.8377 17.6296 11.8543 17.6104L11.8697 17.5931C11.8967 17.564 11.9231 17.5344 11.9489 17.5043C11.9636 17.488 11.9781 17.4715 11.9925 17.4548L12.0083 17.437C12.036 17.4073 12.063 17.377 12.0894 17.3461C12.1002 17.3341 12.1108 17.322 12.1214 17.3099C12.1388 17.2907 12.156 17.2713 12.173 17.2516C12.1874 17.2357 12.2015 17.2197 12.2155 17.2036C12.2257 17.1924 12.2357 17.1812 12.2457 17.1699C12.2701 17.1435 12.2938 17.1168 12.317 17.0898C12.3278 17.0778 12.3385 17.0657 12.3491 17.0535C12.37 17.0307 12.3904 17.0076 12.4104 16.9843L12.43 16.9621C12.4557 16.9344 12.4807 16.9062 12.5051 16.8777L12.5182 16.863C12.5438 16.8354 12.5688 16.8073 12.5932 16.7789C12.6063 16.7644 12.6193 16.7497 12.632 16.7349C12.6484 16.7169 12.6645 16.6987 12.6803 16.6804C12.6973 16.6616 12.7139 16.6427 12.7303 16.6236L12.7484 16.6033C12.7723 16.5776 12.7957 16.5515 12.8184 16.5251C12.8296 16.5127 12.8406 16.5003 12.8515 16.4878C12.8768 16.4603 12.9014 16.4324 12.9254 16.4041L12.9328 16.3958C12.9566 16.3703 12.9797 16.3444 13.0023 16.3182C13.0221 16.2963 13.0414 16.2742 13.0604 16.2519L13.0774 16.2327C13.1003 16.2079 13.1227 16.1827 13.1445 16.1573L13.1555 16.145C13.1835 16.1152 13.2107 16.0849 13.237 16.0541L13.2566 16.0321C13.2842 16.0025 13.3109 15.9724 13.3369 15.9418L13.3406 15.9377C13.358 15.9191 13.3752 15.9003 13.3921 15.8812C13.426 15.845 13.4589 15.8077 13.4907 15.7695C13.5199 15.738 13.5483 15.7058 13.5759 15.6727C13.6055 15.6412 13.6342 15.6089 13.6621 15.5757C13.692 15.5441 13.7211 15.5115 13.7493 15.4782C13.7708 15.4543 13.7917 15.43 13.8122 15.4053L13.8245 15.3911C13.8389 15.3755 13.853 15.3596 13.867 15.3435C13.8995 15.3102 13.931 15.2758 13.9616 15.2405C13.9758 15.2251 13.9898 15.2095 14.0036 15.1936C14.0416 15.1525 14.0782 15.11 14.1133 15.066C14.122 15.0564 14.1306 15.0467 14.1391 15.037C14.1524 15.0226 14.1656 15.008 14.1785 14.9932L14.1921 14.9786L14.2124 14.9562C14.2495 14.9171 14.2853 14.8767 14.3198 14.8349L14.3428 14.8099C14.5923 14.5505 14.783 14.2274 14.8865 13.8565C15.0115 13.4088 14.9919 12.9549 14.8557 12.5447C14.8494 12.5238 14.8427 12.503 14.8358 12.4823C14.8316 12.4685 14.8272 12.4547 14.8227 12.4409C14.8126 12.4036 14.8015 12.3666 14.7895 12.3299C14.7828 12.3074 14.7758 12.285 14.7684 12.2627L14.768 12.2614C14.7585 12.2272 14.7482 12.1933 14.7372 12.1596L14.7283 12.1304L14.7232 12.1143C14.7169 12.093 14.7103 12.0717 14.7034 12.0505C14.6987 12.0345 14.6937 12.0185 14.6887 12.0026L14.6781 11.9677C14.6664 11.9269 14.6537 11.8864 14.6401 11.8464C14.6345 11.8271 14.6288 11.808 14.6227 11.7889C14.6171 11.7692 14.6111 11.7496 14.605 11.73C14.5968 11.7019 14.5882 11.6738 14.5791 11.6459L14.5715 11.6213C14.5637 11.5944 14.5555 11.5675 14.5469 11.5408L14.5382 11.5124C14.5288 11.4795 14.5187 11.4467 14.508 11.4141L14.5049 11.404C14.4953 11.3708 14.4852 11.3377 14.4744 11.3047C14.4687 11.2859 14.4628 11.2671 14.4566 11.2484L14.4513 11.2311C14.4468 11.2154 14.4421 11.1997 14.4372 11.184C14.427 11.148 14.416 11.1121 14.4043 11.0765L14.4029 11.0721C14.3932 11.0381 14.3828 11.0042 14.3719 10.9704C14.3647 10.9468 14.3573 10.9233 14.3495 10.8999C14.3452 10.8859 14.3408 10.872 14.3363 10.8581L14.3327 10.8465C14.3276 10.8285 14.3223 10.8105 14.3168 10.7926C14.3057 10.7542 14.294 10.7159 14.2815 10.6778C14.2713 10.6427 14.2606 10.6078 14.2493 10.573C14.2435 10.5541 14.2376 10.5354 14.2315 10.5166L14.2299 10.5113C14.2237 10.4896 14.2172 10.468 14.2105 10.4465C14.2013 10.4149 14.1916 10.3834 14.1814 10.352C14.175 10.3309 14.1684 10.3099 14.1616 10.2889C14.1556 10.268 14.1493 10.2471 14.1429 10.2263C14.1331 10.1925 14.1228 10.1588 14.1119 10.1252C14.1001 10.0841 14.0875 10.0431 14.0742 10.0023C14.0636 9.96588 14.0524 9.92959 14.0406 9.89346C14.0357 9.87747 14.0307 9.8615 14.0255 9.84557L14.0235 9.83904C14.013 9.80275 14.002 9.76659 13.9903 9.73058C13.9788 9.6907 13.9666 9.65097 13.9537 9.61143C13.9432 9.57534 13.9322 9.53938 13.9206 9.50356C13.9156 9.48738 13.9105 9.47123 13.9054 9.45511L13.9021 9.44513L13.8991 9.43478C13.8902 9.40432 13.8808 9.37394 13.8711 9.34366L13.87 9.34035L13.87 9.34025L13.8693 9.33767C13.8589 9.30183 13.848 9.2661 13.8366 9.23051L13.8286 9.20481C13.8231 9.18602 13.8174 9.16729 13.8115 9.14862C13.8064 9.13141 13.8012 9.11426 13.7959 9.09715C13.7899 9.07683 13.7838 9.05657 13.7774 9.03639C13.7718 9.0174 13.7661 8.99847 13.7602 8.9796C13.7547 8.96108 13.749 8.94261 13.7433 8.92421C13.7317 8.88515 13.7196 8.84634 13.7068 8.80779C13.7017 8.79061 13.6965 8.77349 13.6912 8.75641C13.6828 8.72817 13.6741 8.70005 13.6652 8.67207C13.6515 8.62479 13.637 8.57785 13.6217 8.53127C13.6153 8.50957 13.6087 8.48795 13.6019 8.46639L13.5878 8.42034C13.5771 8.38415 13.5659 8.34815 13.5542 8.31237L13.5534 8.31007L13.553 8.30834C13.5365 8.25011 13.5189 8.19238 13.5001 8.13517C13.494 8.11466 13.4878 8.09421 13.4814 8.07383L13.4674 8.02832C13.4565 7.99134 13.445 7.95456 13.4331 7.91799C13.4163 7.85874 13.3984 7.8 13.3793 7.74177C13.3688 7.70663 13.3579 7.67167 13.3466 7.63689L13.3433 7.62667L13.329 7.57989L13.3247 7.56551L13.3116 7.52278C13.3061 7.50441 13.3005 7.48608 13.2949 7.4678C13.2898 7.45081 13.2847 7.43387 13.2794 7.41697C13.2733 7.39644 13.2671 7.37597 13.2608 7.35556C13.2487 7.31487 13.236 7.27441 13.2229 7.23419L13.2215 7.2299L13.2088 7.18836L13.2077 7.18489L13.1929 7.13615C13.1869 7.11582 13.1807 7.09556 13.1744 7.07535C13.1689 7.05666 13.1632 7.03802 13.1574 7.01943C13.1518 7.00065 13.1461 6.98192 13.1403 6.96323C13.1279 6.92166 13.115 6.88032 13.1016 6.83922L13.0879 6.79448C13.0824 6.77606 13.0768 6.75769 13.0711 6.73936C13.0655 6.72065 13.0598 6.70198 13.0541 6.68336C13.0425 6.64451 13.0304 6.60586 13.018 6.56742L13.0168 6.56376L13.0138 6.55382L12.9991 6.50609L12.9983 6.50346L12.9954 6.49403L12.9848 6.45938C12.9792 6.44039 12.9734 6.42145 12.9675 6.40256C12.962 6.38406 12.9564 6.36562 12.9507 6.34721L12.9355 6.29717C12.9225 6.25361 12.9091 6.21029 12.895 6.1672C12.8894 6.14837 12.8836 6.12958 12.8777 6.11083L12.8641 6.06626L12.8492 6.01733C12.8431 5.99649 12.8367 5.9757 12.8303 5.95496C12.8247 5.93616 12.819 5.9174 12.8132 5.89869C12.8007 5.85684 12.7877 5.81521 12.7742 5.7738C12.7667 5.74891 12.7591 5.7241 12.7512 5.69937C12.738 5.6544 12.7243 5.60968 12.71 5.5652L12.7047 5.54877L12.6919 5.50693L12.6768 5.4572L12.6763 5.4554C12.6702 5.43502 12.664 5.41469 12.6577 5.39441C12.6487 5.36409 12.6394 5.33389 12.6298 5.30379C12.6162 5.2575 12.602 5.21147 12.5872 5.16568L12.5849 5.15862L12.5714 5.11443L12.5679 5.10273L12.5544 5.05857L12.5373 5.00232C12.5303 4.97886 12.5231 4.95546 12.5159 4.93212L12.5052 4.89734C12.4917 4.85187 12.4776 4.80663 12.4631 4.76162ZM6.00927 12.7469L6.00935 12.7455L6.0095 12.7456L6.00942 12.747L6.00927 12.7469ZM6.71875 0.5L6.5558 3.31343L6.55576 3.31344L6.71875 0.5Z" fill="white"/>
</g>
</g>
</svg>
