<svg xmlns="http://www.w3.org/2000/svg" width="92" height="24" viewBox="0 0 92 24" fill="none">
    <path
        d="M19.5 11.25C20.7426 11.25 21.75 10.2426 21.75 9C21.75 7.75736 20.7426 6.75 19.5 6.75C18.2574 6.75 17.25 7.75736 17.25 9C17.25 10.2426 18.2574 11.25 19.5 11.25Z"
        fill="white" />
    <path fill-rule="evenodd" clip-rule="evenodd"
        d="M13.9943 4.26162C13.249 1.79559 10.9592 0 8.25 0C4.93629 0 2.25 2.68629 2.25 6C2.25 8.45596 3.7256 10.5673 5.83859 11.4957C5.86803 11.509 5.8976 11.5221 5.92729 11.5349C5.9771 11.5576 6.02728 11.5796 6.07781 11.601L6.10764 11.6142L6.16085 11.6378L6.19457 11.6529C6.23075 11.6694 6.26712 11.6856 6.30369 11.7013L6.34574 11.7198C6.37713 11.7338 6.40867 11.7475 6.44035 11.761L6.46409 11.7716C6.4883 11.7826 6.5126 11.7935 6.537 11.8042C6.55481 11.8122 6.57267 11.8202 6.59058 11.828C6.61973 11.8412 6.64902 11.8541 6.67844 11.8668L6.72092 11.8854C6.74882 11.8979 6.77684 11.9101 6.80499 11.9221L6.80611 11.9226C6.83504 11.9357 6.86411 11.9485 6.89331 11.9611L6.91411 11.9703C6.93185 11.9783 6.94963 11.9862 6.96746 11.994L7.00242 12.0097C7.04448 12.0289 7.08682 12.0475 7.12944 12.0657L7.16592 12.0815L7.18213 12.0887C7.21073 12.1016 7.23947 12.1143 7.26834 12.1267L7.27194 12.1283C7.29563 12.1391 7.31942 12.1498 7.3433 12.1602C7.37879 12.1763 7.4145 12.1919 7.45041 12.2072L7.45112 12.2075C7.48077 12.2209 7.51057 12.2341 7.54052 12.2469C7.57452 12.2625 7.60872 12.2776 7.64311 12.2924L7.66612 12.3026C7.68386 12.3106 7.70166 12.3185 7.71952 12.3264C7.75186 12.341 7.78438 12.3553 7.81709 12.3692C7.85792 12.3878 7.89905 12.4059 7.94046 12.4234L7.98862 12.4448C8.0063 12.4528 8.02403 12.4607 8.04181 12.4685C8.07057 12.4815 8.09948 12.4942 8.12854 12.5067L8.14972 12.516C8.16747 12.5241 8.18528 12.532 8.20315 12.5398C8.24025 12.5566 8.2776 12.573 8.3152 12.5888L8.34831 12.6036C8.37142 12.6142 8.39464 12.6246 8.41795 12.6348C8.45155 12.65 8.48537 12.6649 8.51939 12.6793L8.52567 12.682C8.54345 12.6901 8.5613 12.698 8.5792 12.7059C8.61161 12.7206 8.64422 12.7349 8.67703 12.7488L8.68709 12.7532C8.71414 12.7655 8.74133 12.7775 8.76867 12.7892L8.81328 12.8088L8.83884 12.8201C8.82235 12.8279 8.80594 12.8358 8.7896 12.8439L8.76323 12.8564C8.7308 12.871 8.69865 12.8862 8.6668 12.9019C8.65141 12.9091 8.63608 12.9164 8.62082 12.9238C8.59945 12.9336 8.5782 12.9437 8.55708 12.9539C8.52993 12.9664 8.50298 12.9793 8.47623 12.9925L8.45068 13.0045C8.42729 13.0151 8.40405 13.026 8.38095 13.0371C8.35282 13.0499 8.3249 13.0631 8.29719 13.0766C8.27305 13.0878 8.24906 13.0993 8.22523 13.1111L8.2003 13.1228C8.16642 13.1382 8.13284 13.1541 8.09956 13.1705L8.06825 13.1853C8.04944 13.1939 8.03072 13.2026 8.01209 13.2115C7.97476 13.2284 7.93778 13.246 7.90117 13.2642L7.86834 13.2799C7.847 13.2897 7.82577 13.2997 7.80466 13.31L7.77478 13.3239C7.7361 13.3413 7.69779 13.3593 7.65986 13.378C7.64525 13.3848 7.6307 13.3917 7.6162 13.3988C7.59211 13.4099 7.56817 13.4212 7.54438 13.4329C7.52008 13.4442 7.49592 13.4557 7.47191 13.4675L7.46221 13.4721C7.42981 13.4866 7.39767 13.5016 7.36579 13.5171C7.34505 13.5267 7.32442 13.5364 7.30389 13.5463C7.2825 13.5562 7.26121 13.5663 7.24004 13.5765C7.21587 13.5877 7.19184 13.5991 7.16796 13.6108C7.14816 13.62 7.12846 13.6293 7.10886 13.6389C7.09 13.6476 7.07123 13.6565 7.05255 13.6656C7.03192 13.6751 7.01139 13.6848 6.99096 13.6947C6.96955 13.7046 6.94826 13.7146 6.92707 13.7249C6.90644 13.7344 6.88591 13.7441 6.86549 13.754C6.84518 13.7634 6.82497 13.7729 6.80485 13.7826C6.78321 13.7926 6.76168 13.8028 6.74026 13.8131C6.71886 13.823 6.69756 13.8331 6.67637 13.8434C5.38929 14.4374 4.49609 15.7394 4.49609 17.25C4.49609 19.3211 6.17503 21 8.24609 21C9.36639 21 10.3719 20.5087 11.0591 19.7299C11.0796 19.7075 11.0999 19.6848 11.1199 19.6619C11.1421 19.6373 11.164 19.6125 11.1856 19.5873L11.2116 19.5578C11.2223 19.546 11.2329 19.5342 11.2434 19.5222C11.2639 19.4999 11.2841 19.4773 11.304 19.4544C11.3147 19.4426 11.3253 19.4307 11.3359 19.4187C11.3699 19.3816 11.4031 19.3438 11.4356 19.3053L11.4471 19.2921L11.4733 19.2627C11.4937 19.2404 11.5139 19.2179 11.5338 19.195L11.5506 19.1763L11.5659 19.1592C11.5872 19.1358 11.6083 19.1122 11.6291 19.0883C11.6474 19.0681 11.6654 19.0477 11.6832 19.0271L11.7097 18.9973L11.7233 18.9816L11.7503 18.9513C11.7742 18.9252 11.7977 18.8988 11.8208 18.8721C11.8337 18.8577 11.8464 18.8433 11.8591 18.8287L11.8888 18.7954C11.909 18.7734 11.929 18.7511 11.9486 18.7285C11.9696 18.7054 11.9902 18.682 12.0105 18.6583L12.0162 18.652C12.0447 18.6212 12.0726 18.5899 12.1 18.5581C12.1146 18.5418 12.129 18.5254 12.1433 18.5088L12.1549 18.4959C12.1823 18.4662 12.2093 18.4361 12.2356 18.4055C12.2493 18.3903 12.2628 18.375 12.2762 18.3596C12.2942 18.3396 12.312 18.3194 12.3295 18.299L12.3393 18.2881C12.3666 18.2586 12.3934 18.2286 12.4196 18.1982L12.4424 18.1726C12.4624 18.1508 12.4822 18.1287 12.5016 18.1064C12.5278 18.0774 12.5536 18.048 12.5788 18.0181C12.6027 17.9922 12.6261 17.9659 12.6491 17.9392L12.6623 17.9244C12.6892 17.8954 12.7156 17.8658 12.7415 17.8358C12.7577 17.8178 12.7737 17.7995 12.7896 17.7811C12.8025 17.7667 12.8153 17.7522 12.828 17.7375L12.8569 17.7051C12.8767 17.6835 12.8962 17.6617 12.9155 17.6395C12.9269 17.627 12.9382 17.6143 12.9494 17.6016C12.97 17.5792 12.9903 17.5564 13.0102 17.5334C13.03 17.5117 13.0494 17.4897 13.0685 17.4673L13.0908 17.4421L13.0995 17.4322C13.111 17.4195 13.1224 17.4068 13.1337 17.3939C13.1567 17.3688 13.1794 17.3434 13.2017 17.3175C13.2146 17.3032 13.2274 17.2887 13.24 17.2741C13.2509 17.2621 13.2616 17.2501 13.2722 17.238C13.2935 17.2148 13.3145 17.1913 13.3351 17.1675C13.3521 17.1487 13.3689 17.1296 13.3855 17.1104L13.401 17.0931C13.4279 17.064 13.4544 17.0344 13.4802 17.0043C13.4949 16.988 13.5094 16.9715 13.5237 16.9548L13.5396 16.937C13.5672 16.9073 13.5943 16.877 13.6207 16.8461C13.6314 16.8341 13.6421 16.822 13.6526 16.8099C13.6701 16.7907 13.6873 16.7713 13.7042 16.7516C13.7186 16.7357 13.7328 16.7197 13.7467 16.7036C13.7569 16.6924 13.767 16.6812 13.7769 16.6699C13.8013 16.6435 13.8251 16.6168 13.8483 16.5898C13.8591 16.5778 13.8698 16.5657 13.8804 16.5535C13.9012 16.5307 13.9216 16.5076 13.9416 16.4843L13.9613 16.4621C13.987 16.4344 14.012 16.4062 14.0364 16.3777L14.0494 16.363C14.0751 16.3354 14.1001 16.3073 14.1244 16.2789C14.1376 16.2644 14.1505 16.2497 14.1633 16.2349C14.1796 16.2169 14.1957 16.1987 14.2115 16.1804C14.2285 16.1616 14.2452 16.1427 14.2616 16.1236L14.2796 16.1033C14.3036 16.0776 14.3269 16.0515 14.3497 16.0251C14.3609 16.0127 14.3719 16.0003 14.3828 15.9878C14.4081 15.9603 14.4327 15.9324 14.4566 15.9041L14.4641 15.8958C14.4878 15.8703 14.511 15.8444 14.5335 15.8182C14.5533 15.7963 14.5727 15.7742 14.5916 15.7519L14.6087 15.7327C14.6316 15.7079 14.6539 15.6827 14.6757 15.6573L14.6867 15.645C14.7147 15.6152 14.7419 15.5849 14.7683 15.5541L14.7879 15.5321C14.8154 15.5025 14.8422 15.4724 14.8681 15.4418L14.8719 15.4377C14.8893 15.4191 14.9065 15.4003 14.9234 15.3812C14.9573 15.345 14.9901 15.3077 15.0219 15.2695C15.0511 15.238 15.0796 15.2058 15.1072 15.1727C15.1367 15.1412 15.1655 15.1089 15.1934 15.0757C15.2233 15.0441 15.2523 15.0115 15.2806 14.9782C15.302 14.9543 15.323 14.93 15.3435 14.9053L15.3558 14.8911C15.3701 14.8755 15.3843 14.8596 15.3983 14.8435C15.4307 14.8102 15.4623 14.7758 15.4929 14.7405C15.507 14.7251 15.521 14.7095 15.5348 14.6936C15.5728 14.6525 15.6094 14.61 15.6446 14.566C15.6532 14.5564 15.6618 14.5467 15.6703 14.537C15.6837 14.5226 15.6968 14.508 15.7098 14.4932L15.7233 14.4786L15.7437 14.4562C15.7808 14.4171 15.8166 14.3767 15.851 14.3349L15.874 14.3099C16.1235 14.0505 16.3142 13.7274 16.4178 13.3565C16.5428 12.9088 16.5231 12.4549 16.3869 12.0447C16.3806 12.0238 16.374 12.003 16.3671 11.9823C16.3628 11.9685 16.3585 11.9547 16.354 11.9409C16.3438 11.9036 16.3327 11.8666 16.3208 11.8299C16.3141 11.8074 16.307 11.785 16.2997 11.7627L16.2993 11.7614C16.2897 11.7272 16.2795 11.6933 16.2685 11.6596L16.2596 11.6304L16.2545 11.6143C16.2482 11.593 16.2416 11.5717 16.2347 11.5505C16.2299 11.5345 16.225 11.5185 16.2199 11.5026L16.2093 11.4677C16.1977 11.4269 16.185 11.3864 16.1714 11.3464C16.1658 11.3271 16.16 11.308 16.154 11.2889C16.1483 11.2692 16.1424 11.2496 16.1362 11.23C16.1281 11.2019 16.1194 11.1738 16.1103 11.1459L16.1028 11.1213C16.095 11.0944 16.0868 11.0675 16.0782 11.0408L16.0695 11.0124C16.06 10.9795 16.0499 10.9467 16.0392 10.9141L16.0361 10.904C16.0266 10.8708 16.0164 10.8377 16.0057 10.8047C15.9999 10.7859 15.994 10.7671 15.9879 10.7484L15.9826 10.7311C15.978 10.7154 15.9733 10.6997 15.9685 10.684C15.9582 10.648 15.9472 10.6121 15.9355 10.5765L15.9342 10.5721C15.9245 10.5381 15.9141 10.5042 15.9031 10.4704C15.896 10.4468 15.8885 10.4233 15.8808 10.3999C15.8765 10.3859 15.8721 10.372 15.8676 10.3581L15.864 10.3465C15.8588 10.3285 15.8535 10.3105 15.848 10.2926C15.837 10.2542 15.8252 10.2159 15.8127 10.1778C15.8026 10.1427 15.7919 10.1078 15.7805 10.073C15.7748 10.0541 15.7689 10.0354 15.7628 10.0166L15.7611 10.0113C15.7549 9.98962 15.7485 9.96805 15.7418 9.94652C15.7326 9.91489 15.7229 9.88336 15.7127 9.85196C15.7063 9.8309 15.6997 9.8099 15.6928 9.78895C15.6868 9.76801 15.6806 9.74712 15.6742 9.72628C15.6643 9.69246 15.654 9.65877 15.6431 9.62521C15.6313 9.58406 15.6188 9.54309 15.6054 9.50231C15.5948 9.46588 15.5837 9.42959 15.5719 9.39346C15.567 9.37747 15.5619 9.3615 15.5568 9.34557L15.5548 9.33904C15.5443 9.30275 15.5332 9.26659 15.5215 9.23058C15.51 9.1907 15.4979 9.15097 15.485 9.11143C15.4745 9.07534 15.4634 9.03938 15.4518 9.00356C15.4469 8.98738 15.4418 8.97123 15.4366 8.95511L15.4334 8.94513L15.4304 8.93478C15.4214 8.90432 15.4121 8.87394 15.4024 8.84366L15.4013 8.84035L15.4013 8.84025L15.4005 8.83767C15.3902 8.80183 15.3793 8.7661 15.3678 8.73051L15.3599 8.70481C15.3543 8.68602 15.3486 8.66729 15.3428 8.64862C15.3377 8.63141 15.3325 8.61426 15.3272 8.59715C15.3212 8.57683 15.315 8.55657 15.3087 8.53639C15.3031 8.5174 15.2973 8.49847 15.2914 8.4796C15.2859 8.46108 15.2803 8.44261 15.2745 8.42421C15.263 8.38515 15.2508 8.34634 15.2381 8.30779C15.233 8.29061 15.2278 8.27349 15.2224 8.25641C15.214 8.22817 15.2054 8.20005 15.1964 8.17207C15.1827 8.12479 15.1683 8.07785 15.153 8.03127C15.1465 8.00957 15.1399 7.98795 15.1331 7.96639L15.1191 7.92034C15.1083 7.88415 15.0971 7.84815 15.0854 7.81237L15.0847 7.81007L15.0842 7.80834C15.0678 7.75011 15.0502 7.69238 15.0314 7.63517C15.0253 7.61466 15.019 7.59421 15.0126 7.57383L14.9987 7.52832C14.9877 7.49134 14.9762 7.45456 14.9643 7.41799C14.9476 7.35874 14.9297 7.3 14.9106 7.24177C14.9001 7.20663 14.8892 7.17167 14.8779 7.13689L14.8745 7.12667L14.8602 7.07989L14.8559 7.06551L14.8428 7.02278C14.8374 7.00441 14.8318 6.98608 14.8261 6.9678C14.8211 6.95081 14.8159 6.93387 14.8107 6.91697C14.8046 6.89644 14.7984 6.87597 14.792 6.85556C14.7799 6.81487 14.7673 6.77441 14.7541 6.73419L14.7527 6.7299L14.74 6.68836L14.739 6.68489L14.7241 6.63615C14.7181 6.61582 14.712 6.59556 14.7057 6.57535C14.7001 6.55666 14.6944 6.53802 14.6887 6.51943C14.6831 6.50065 14.6774 6.48192 14.6715 6.46323C14.6592 6.42166 14.6462 6.38032 14.6328 6.33922L14.6191 6.29448C14.6136 6.27606 14.608 6.25769 14.6023 6.23936C14.5968 6.22065 14.5911 6.20198 14.5853 6.18336C14.5737 6.14451 14.5617 6.10586 14.5492 6.06742L14.548 6.06376L14.545 6.05382L14.5304 6.00609L14.5296 6.00346L14.5267 5.99403L14.5161 5.95938C14.5104 5.94039 14.5047 5.92145 14.4988 5.90256C14.4933 5.88406 14.4876 5.86562 14.4819 5.84721L14.4667 5.79717C14.4538 5.75361 14.4403 5.71029 14.4263 5.6672C14.4206 5.64837 14.4149 5.62958 14.409 5.61083L14.3954 5.56626L14.3805 5.51733C14.3743 5.49649 14.368 5.4757 14.3616 5.45496C14.3559 5.43616 14.3502 5.4174 14.3444 5.39869C14.3319 5.35684 14.319 5.31521 14.3055 5.2738C14.298 5.24891 14.2903 5.2241 14.2825 5.19937C14.2693 5.1544 14.2555 5.10968 14.2412 5.0652L14.2359 5.04877L14.2231 5.00693L14.208 4.9572L14.2075 4.9554C14.2014 4.93502 14.1953 4.91469 14.189 4.89441C14.1799 4.86409 14.1706 4.83389 14.1611 4.80379C14.1474 4.7575 14.1332 4.71147 14.1185 4.66568L14.1162 4.65862L14.1027 4.61443L14.0991 4.60273L14.0857 4.55857L14.0686 4.50232C14.0616 4.47886 14.0544 4.45546 14.0471 4.43212L14.0365 4.39734C14.023 4.35187 14.0089 4.30663 13.9943 4.26162ZM7.54052 12.2469L7.5406 12.2455L7.54075 12.2456L7.54067 12.247L7.54052 12.2469ZM8.25 0L8.08705 2.81343L8.08701 2.81344L8.25 0Z"
        fill="white" />
    <path
        d="M29.36 9.392C30.1067 9.392 30.768 9.57867 31.344 9.952C31.9307 10.3253 32.3947 10.8427 32.736 11.504C33.0773 12.1547 33.248 12.9067 33.248 13.76C33.248 14.6133 33.0773 15.3707 32.736 16.032C32.3947 16.6933 31.936 17.216 31.36 17.6C30.784 17.9733 30.1333 18.16 29.408 18.16C29.0027 18.16 28.6187 18.096 28.256 17.968C27.8933 17.8293 27.5733 17.6587 27.296 17.456C27.0187 17.2427 26.7893 17.0187 26.608 16.784C26.4373 16.5493 26.3307 16.3307 26.288 16.128L26.72 15.92V17.312C26.72 17.536 26.64 17.728 26.48 17.888C26.3307 18.0373 26.144 18.112 25.92 18.112C25.6853 18.112 25.4933 18.0373 25.344 17.888C25.1947 17.7387 25.12 17.5467 25.12 17.312V6.976C25.12 6.74133 25.1947 6.54933 25.344 6.4C25.4933 6.24 25.6853 6.16 25.92 6.16C26.144 6.16 26.3307 6.24 26.48 6.4C26.64 6.54933 26.72 6.74133 26.72 6.976V11.472L26.464 11.328C26.496 11.1253 26.5973 10.9173 26.768 10.704C26.9387 10.48 27.152 10.2667 27.408 10.064C27.6747 9.86133 27.9733 9.70133 28.304 9.584C28.6453 9.456 28.9973 9.392 29.36 9.392ZM29.184 10.864C28.672 10.864 28.224 10.992 27.84 11.248C27.4667 11.504 27.1733 11.8507 26.96 12.288C26.7467 12.7147 26.64 13.2053 26.64 13.76C26.64 14.3147 26.7467 14.816 26.96 15.264C27.1733 15.7013 27.4667 16.048 27.84 16.304C28.224 16.56 28.672 16.688 29.184 16.688C29.6853 16.688 30.1227 16.56 30.496 16.304C30.8693 16.048 31.1627 15.696 31.376 15.248C31.6 14.8 31.712 14.304 31.712 13.76C31.712 13.2053 31.6 12.7147 31.376 12.288C31.1627 11.8507 30.8693 11.504 30.496 11.248C30.1227 10.992 29.6853 10.864 29.184 10.864ZM41.3295 9.584C41.5535 9.584 41.7402 9.664 41.8895 9.824C42.0495 9.97333 42.1295 10.1653 42.1295 10.4V14.608C42.1295 15.7173 41.8202 16.5867 41.2015 17.216C40.5828 17.8347 39.7082 18.144 38.5775 18.144C37.4575 18.144 36.5882 17.8347 35.9695 17.216C35.3615 16.5867 35.0575 15.7173 35.0575 14.608V10.4C35.0575 10.1653 35.1322 9.97333 35.2815 9.824C35.4308 9.664 35.6228 9.584 35.8575 9.584C36.0815 9.584 36.2682 9.664 36.4175 9.824C36.5775 9.97333 36.6575 10.1653 36.6575 10.4V14.608C36.6575 15.3013 36.8175 15.8187 37.1375 16.16C37.4682 16.5013 37.9482 16.672 38.5775 16.672C39.2175 16.672 39.7028 16.5013 40.0335 16.16C40.3642 15.8187 40.5295 15.3013 40.5295 14.608V10.4C40.5295 10.1653 40.6042 9.97333 40.7535 9.824C40.9028 9.664 41.0948 9.584 41.3295 9.584ZM44.2424 9.68H48.0024C48.2157 9.68 48.3917 9.75467 48.5304 9.904C48.6797 10.0427 48.7544 10.2187 48.7544 10.432C48.7544 10.6347 48.6797 10.8053 48.5304 10.944C48.3917 11.0827 48.2157 11.152 48.0024 11.152H44.2424C44.029 11.152 43.8477 11.0827 43.6984 10.944C43.5597 10.7947 43.4904 10.6187 43.4904 10.416C43.4904 10.2027 43.5597 10.0267 43.6984 9.888C43.8477 9.74933 44.029 9.68 44.2424 9.68ZM45.9224 7.6C46.157 7.6 46.349 7.68 46.4984 7.84C46.6477 7.98933 46.7224 8.18133 46.7224 8.416V15.84C46.7224 16.032 46.7544 16.1867 46.8184 16.304C46.8824 16.4213 46.9677 16.5013 47.0744 16.544C47.1917 16.5867 47.309 16.608 47.4264 16.608C47.5437 16.608 47.645 16.5867 47.7304 16.544C47.8264 16.5013 47.9384 16.48 48.0664 16.48C48.1944 16.48 48.3117 16.5387 48.4184 16.656C48.525 16.7733 48.5784 16.9333 48.5784 17.136C48.5784 17.392 48.4397 17.6 48.1624 17.76C47.885 17.92 47.5864 18 47.2664 18C47.085 18 46.8717 17.984 46.6264 17.952C46.381 17.92 46.141 17.84 45.9064 17.712C45.6824 17.584 45.4957 17.3813 45.3464 17.104C45.197 16.816 45.1224 16.416 45.1224 15.904V8.416C45.1224 8.18133 45.197 7.98933 45.3464 7.84C45.5064 7.68 45.6984 7.6 45.9224 7.6ZM50.4143 9.68H54.1743C54.3876 9.68 54.5636 9.75467 54.7023 9.904C54.8516 10.0427 54.9263 10.2187 54.9263 10.432C54.9263 10.6347 54.8516 10.8053 54.7023 10.944C54.5636 11.0827 54.3876 11.152 54.1743 11.152H50.4143C50.2009 11.152 50.0196 11.0827 49.8703 10.944C49.7316 10.7947 49.6623 10.6187 49.6623 10.416C49.6623 10.2027 49.7316 10.0267 49.8703 9.888C50.0196 9.74933 50.2009 9.68 50.4143 9.68ZM52.0943 7.6C52.3289 7.6 52.5209 7.68 52.6703 7.84C52.8196 7.98933 52.8943 8.18133 52.8943 8.416V15.84C52.8943 16.032 52.9263 16.1867 52.9903 16.304C53.0543 16.4213 53.1396 16.5013 53.2463 16.544C53.3636 16.5867 53.4809 16.608 53.5983 16.608C53.7156 16.608 53.8169 16.5867 53.9023 16.544C53.9983 16.5013 54.1103 16.48 54.2383 16.48C54.3663 16.48 54.4836 16.5387 54.5903 16.656C54.6969 16.7733 54.7503 16.9333 54.7503 17.136C54.7503 17.392 54.6116 17.6 54.3343 17.76C54.0569 17.92 53.7583 18 53.4383 18C53.2569 18 53.0436 17.984 52.7983 17.952C52.5529 17.92 52.3129 17.84 52.0783 17.712C51.8543 17.584 51.6676 17.3813 51.5182 17.104C51.3689 16.816 51.2943 16.416 51.2943 15.904V8.416C51.2943 8.18133 51.3689 7.98933 51.5182 7.84C51.6782 7.68 51.8703 7.6 52.0943 7.6ZM60.54 18.16C59.6547 18.16 58.8867 17.9787 58.236 17.616C57.5853 17.2427 57.0787 16.736 56.716 16.096C56.364 15.4453 56.188 14.704 56.188 13.872C56.188 12.9333 56.3747 12.1333 56.748 11.472C57.132 10.8 57.628 10.288 58.236 9.936C58.844 9.57333 59.4893 9.392 60.172 9.392C60.6947 9.392 61.1907 9.49867 61.66 9.712C62.1293 9.91467 62.5453 10.2027 62.908 10.576C63.2813 10.9387 63.5747 11.3707 63.788 11.872C64.0013 12.3627 64.1133 12.9013 64.124 13.488C64.1133 13.7013 64.028 13.8773 63.868 14.016C63.708 14.1547 63.5213 14.224 63.308 14.224H57.084L56.7 12.864H62.716L62.412 13.152V12.752C62.3907 12.3787 62.268 12.0533 62.044 11.776C61.82 11.488 61.5427 11.2693 61.212 11.12C60.8813 10.96 60.5347 10.88 60.172 10.88C59.852 10.88 59.5427 10.9333 59.244 11.04C58.956 11.136 58.6947 11.296 58.46 11.52C58.236 11.744 58.0547 12.0427 57.916 12.416C57.788 12.7787 57.724 13.232 57.724 13.776C57.724 14.3627 57.8467 14.8747 58.092 15.312C58.3373 15.7493 58.668 16.0907 59.084 16.336C59.5 16.5707 59.9587 16.688 60.46 16.688C60.8547 16.688 61.18 16.6507 61.436 16.576C61.692 16.4907 61.9053 16.3893 62.076 16.272C62.2467 16.1547 62.396 16.0427 62.524 15.936C62.684 15.84 62.844 15.792 63.004 15.792C63.196 15.792 63.356 15.8613 63.484 16C63.612 16.128 63.676 16.2827 63.676 16.464C63.676 16.6987 63.5587 16.912 63.324 17.104C63.036 17.3813 62.636 17.6267 62.124 17.84C61.6227 18.0533 61.0947 18.16 60.54 18.16ZM66.7325 18C66.4978 18 66.3058 17.9253 66.1565 17.776C66.0072 17.616 65.9325 17.4187 65.9325 17.184V10.4C65.9325 10.1653 66.0072 9.97333 66.1565 9.824C66.3058 9.664 66.4978 9.584 66.7325 9.584C66.9565 9.584 67.1432 9.664 67.2925 9.824C67.4525 9.97333 67.5325 10.1653 67.5325 10.4V12.192L67.3725 11.504C67.4578 11.2053 67.5858 10.928 67.7565 10.672C67.9378 10.416 68.1512 10.192 68.3965 10C68.6418 9.808 68.9138 9.65867 69.2125 9.552C69.5218 9.44533 69.8418 9.392 70.1725 9.392C70.4498 9.392 70.6898 9.46667 70.8925 9.616C71.0952 9.76533 71.1965 9.952 71.1965 10.176C71.1965 10.464 71.1218 10.6773 70.9725 10.816C70.8232 10.944 70.6578 11.008 70.4765 11.008C70.3165 11.008 70.1618 10.976 70.0125 10.912C69.8632 10.8373 69.6872 10.8 69.4845 10.8C69.2605 10.8 69.0312 10.8587 68.7965 10.976C68.5618 11.0933 68.3485 11.2693 68.1565 11.504C67.9645 11.728 67.8098 11.9947 67.6925 12.304C67.5858 12.6133 67.5325 12.96 67.5325 13.344V17.184C67.5325 17.4187 67.4525 17.616 67.2925 17.776C67.1432 17.9253 66.9565 18 66.7325 18ZM76.54 6.176C76.7427 6.176 76.9507 6.20267 77.164 6.256C77.3773 6.30933 77.5533 6.4 77.692 6.528C77.8413 6.64533 77.916 6.81067 77.916 7.024C77.916 7.23733 77.852 7.41333 77.724 7.552C77.596 7.68 77.4467 7.744 77.276 7.744C77.1693 7.744 77.0253 7.72267 76.844 7.68C76.6627 7.62667 76.4813 7.6 76.3 7.6C76.0547 7.6 75.8573 7.65867 75.708 7.776C75.5587 7.88267 75.452 8.02133 75.388 8.192C75.324 8.352 75.292 8.512 75.292 8.672V17.184C75.292 17.4187 75.212 17.616 75.052 17.776C74.9027 17.9253 74.716 18 74.492 18C74.2573 18 74.0653 17.9253 73.916 17.776C73.7667 17.616 73.692 17.4187 73.692 17.184V8.688C73.692 7.952 73.932 7.34933 74.412 6.88C74.9027 6.41067 75.612 6.176 76.54 6.176ZM76.86 9.728C77.0733 9.728 77.2493 9.79733 77.388 9.936C77.5267 10.0747 77.596 10.2507 77.596 10.464C77.596 10.6773 77.5267 10.8533 77.388 10.992C77.2493 11.1307 77.0733 11.2 76.86 11.2H72.716C72.5133 11.2 72.3373 11.1307 72.188 10.992C72.0493 10.8533 71.98 10.6773 71.98 10.464C71.98 10.2507 72.0493 10.0747 72.188 9.936C72.3373 9.79733 72.5133 9.728 72.716 9.728H76.86ZM80.9261 17.184C80.9261 17.4187 80.8461 17.616 80.6861 17.776C80.5368 17.9253 80.3501 18 80.1261 18C79.9021 18 79.7101 17.9253 79.5501 17.776C79.4008 17.616 79.3261 17.4187 79.3261 17.184V6.976C79.3261 6.74133 79.4061 6.54933 79.5661 6.4C79.7261 6.24 79.9181 6.16 80.1421 6.16C80.3768 6.16 80.5635 6.24 80.7021 6.4C80.8515 6.54933 80.9261 6.74133 80.9261 6.976V17.184ZM89.3291 9.52C89.5638 9.52 89.7558 9.6 89.9051 9.76C90.0545 9.90933 90.1291 10.1013 90.1291 10.336V17.216C90.1291 18.1547 89.9478 18.9173 89.5851 19.504C89.2331 20.0907 88.7531 20.5173 88.1451 20.784C87.5478 21.0613 86.8705 21.2 86.1131 21.2C85.7291 21.2 85.3451 21.1627 84.9611 21.088C84.5771 21.024 84.2625 20.928 84.0171 20.8C83.7611 20.6827 83.5798 20.5387 83.4731 20.368C83.3665 20.1973 83.3505 20.0107 83.4251 19.808C83.4998 19.552 83.6278 19.376 83.8091 19.28C83.9905 19.1947 84.1771 19.1893 84.3691 19.264C84.5505 19.3387 84.7905 19.4347 85.0891 19.552C85.3878 19.6693 85.7291 19.728 86.1131 19.728C86.6358 19.728 87.0785 19.6427 87.4411 19.472C87.8038 19.3013 88.0758 19.0347 88.2571 18.672C88.4491 18.3093 88.5451 17.84 88.5451 17.264V16.16L88.8011 16.544C88.6305 16.896 88.4065 17.1893 88.1291 17.424C87.8518 17.6587 87.5211 17.84 87.1371 17.968C86.7638 18.096 86.3478 18.16 85.8891 18.16C85.3025 18.16 84.7958 18.032 84.3691 17.776C83.9531 17.5093 83.6331 17.1467 83.4091 16.688C83.1851 16.2187 83.0731 15.6853 83.0731 15.088V10.336C83.0731 10.1013 83.1478 9.90933 83.2971 9.76C83.4465 9.6 83.6385 9.52 83.8731 9.52C84.0971 9.52 84.2838 9.6 84.4331 9.76C84.5931 9.90933 84.6731 10.1013 84.6731 10.336V14.656C84.6731 15.36 84.8278 15.8773 85.1371 16.208C85.4465 16.528 85.9051 16.688 86.5131 16.688C86.9185 16.688 87.2705 16.6027 87.5691 16.432C87.8678 16.2613 88.1025 16.0267 88.2731 15.728C88.4438 15.4187 88.5291 15.0613 88.5291 14.656V10.336C88.5291 10.1013 88.6038 9.90933 88.7531 9.76C88.9131 9.6 89.1051 9.52 89.3291 9.52Z"
        fill="white" />
</svg>